<svg xmlns="http://www.w3.org/2000/svg" viewBox="0 0 317 88.98"><path fill="#10161a" d="M9.35,8,7,10.29a38.78,38.78,0,0,1,.35,6.19l.85,57c0,4.29.29,6.67,3.67,9.37l3.76,2.46c2.56,2,19.53,1.87,9.58,1.87l271.48-.68c3.29,0,5.19-2.23,7.75-4.28l3-2.64c3.38-2.7,1.7-2.4,1.7-6.69L310,17.06c0-4.28-.76-8-4.13-10.71h0a18.9,18.9,0,0,0-10.39-3.64L19.59,2.48A36.38,36.38,0,0,0,9.35,8Z"></path><path fill="#C53131" d="M305.89,0H11.1L0,9V79.93l11.1,9H305.89l11.11-9V9ZM294.34,86.5H22.6A24.06,24.06,0,0,1,8.69,78.78V10.24a24.36,24.36,0,0,1,14-7.76H294.4a24.09,24.09,0,0,1,13.91,7.72V78.73a24.36,24.36,0,0,1-14,7.77ZM3.05,21.16a27.77,27.77,0,0,1,4-8.79V76.63c-.37-.53-.76-1-1.09-1.62a27.78,27.78,0,0,1-2.89-7.1ZM310,12.34c.37.54.76,1.05,1.09,1.62A28,28,0,0,1,314,21.07V67.81a27.91,27.91,0,0,1-4,8.8Zm4-2.27v7a26.94,26.94,0,0,0-4-6.77v-.13h-.1a24.53,24.53,0,0,0-11.24-7.68h6ZM12.37,2.48h6A24.53,24.53,0,0,0,7.13,10.16H7v.13a26.94,26.94,0,0,0-4,6.77v-7ZM3.05,78.91v-7a26.81,26.81,0,0,0,4,6.78v.13h.1A24.61,24.61,0,0,0,18.37,86.5h-6ZM304.63,86.5h-6a24.61,24.61,0,0,0,11.24-7.68h.1v-.13a26.81,26.81,0,0,0,4-6.78v7Z"></path></svg>